<?xml version="1.0"?>
<!-- Generated by SVGo and Plotinum VG -->
<svg width="360pt" height="360pt" viewBox="0 0 360 360"
	xmlns="http://www.w3.org/2000/svg"
	xmlns:xlink="http://www.w3.org/1999/xlink">
<g transform="scale(1, -1) translate(0, -360)">
<path d="M0,0L360,0L360,360L0,360Z" style="fill:#FFFFFF" />
<text x="198.07" y="-3.9023" transform="scale(1, -1)"
	style="font-family:Liberation Serif;font-variant:normal;font-weight:normal;font-style:normal;font-size:12px">x</text>
<text x="66.326" y="-16.541" transform="scale(1, -1)"
	style="font-family:Liberation Serif;font-variant:normal;font-weight:normal;font-style:normal;font-size:10px">10</text>
<text x="196.07" y="-16.541" transform="scale(1, -1)"
	style="font-family:Liberation Serif;font-variant:normal;font-weight:normal;font-style:normal;font-size:10px">50</text>
<text x="325.81" y="-16.541" transform="scale(1, -1)"
	style="font-family:Liberation Serif;font-variant:normal;font-weight:normal;font-style:normal;font-size:10px">90</text>
<path d="M71.326,24.363L71.326,32.363" style="fill:none;stroke:#000000;stroke-width:0.5" />
<path d="M201.07,24.363L201.07,32.363" style="fill:none;stroke:#000000;stroke-width:0.5" />
<path d="M330.81,24.363L330.81,32.363" style="fill:none;stroke:#000000;stroke-width:0.5" />
<path d="M103.76,28.363L103.76,32.363" style="fill:none;stroke:#000000;stroke-width:0.5" />
<path d="M136.2,28.363L136.2,32.363" style="fill:none;stroke:#000000;stroke-width:0.5" />
<path d="M168.63,28.363L168.63,32.363" style="fill:none;stroke:#000000;stroke-width:0.5" />
<path d="M233.5,28.363L233.5,32.363" style="fill:none;stroke:#000000;stroke-width:0.5" />
<path d="M265.94,28.363L265.94,32.363" style="fill:none;stroke:#000000;stroke-width:0.5" />
<path d="M298.37,28.363L298.37,32.363" style="fill:none;stroke:#000000;stroke-width:0.5" />
<path d="M42.135,32.363L360,32.363" style="fill:none;stroke:#000000;stroke-width:0.5" />
<g transform="rotate(90)">
<text x="197.1" y="9.3867" transform="scale(1, -1)"
	style="font-family:Liberation Serif;font-variant:normal;font-weight:normal;font-style:normal;font-size:12px">y</text>
</g>
<text x="15.885" y="-69.741" transform="scale(1, -1)"
	style="font-family:Liberation Serif;font-variant:normal;font-weight:normal;font-style:normal;font-size:10px">10</text>
<text x="15.885" y="-197.82" transform="scale(1, -1)"
	style="font-family:Liberation Serif;font-variant:normal;font-weight:normal;font-style:normal;font-size:10px">50</text>
<text x="15.885" y="-325.9" transform="scale(1, -1)"
	style="font-family:Liberation Serif;font-variant:normal;font-weight:normal;font-style:normal;font-size:10px">90</text>
<path d="M28.385,72.027L36.385,72.027" style="fill:none;stroke:#000000;stroke-width:0.5" />
<path d="M28.385,200.1L36.385,200.1" style="fill:none;stroke:#000000;stroke-width:0.5" />
<path d="M28.385,328.18L36.385,328.18" style="fill:none;stroke:#000000;stroke-width:0.5" />
<path d="M32.385,104.05L36.385,104.05" style="fill:none;stroke:#000000;stroke-width:0.5" />
<path d="M32.385,136.07L36.385,136.07" style="fill:none;stroke:#000000;stroke-width:0.5" />
<path d="M32.385,168.09L36.385,168.09" style="fill:none;stroke:#000000;stroke-width:0.5" />
<path d="M32.385,232.12L36.385,232.12" style="fill:none;stroke:#000000;stroke-width:0.5" />
<path d="M32.385,264.14L36.385,264.14" style="fill:none;stroke:#000000;stroke-width:0.5" />
<path d="M32.385,296.16L36.385,296.16" style="fill:none;stroke:#000000;stroke-width:0.5" />
<path d="M36.385,43.209L36.385,357" style="fill:none;stroke:#000000;stroke-width:0.5" />
<path d="M71.326,43.209L71.326,357" style="fill:none;stroke:#808080;stroke-width:0.25" />
<path d="M201.07,43.209L201.07,357" style="fill:none;stroke:#808080;stroke-width:0.25" />
<path d="M330.81,43.209L330.81,357" style="fill:none;stroke:#808080;stroke-width:0.25" />
<path d="M42.135,72.027L360,72.027" style="fill:none;stroke:#808080;stroke-width:0.25" />
<path d="M42.135,200.1L360,200.1" style="fill:none;stroke:#808080;stroke-width:0.25" />
<path d="M42.135,328.18L360,328.18" style="fill:none;stroke:#808080;stroke-width:0.25" />
<path d="M103.52,164.88A3,3 0 1 1 97.518,164.88A3,3 0 1 1 103.52,164.88Z" style="fill:#5630A2;fill-opacity:0.49804" />
<path d="M106.76,59.219A3,3 0 1 1 100.76,59.219A3,3 0 1 1 106.76,59.219Z" style="fill:#5630A2;fill-opacity:0.49804" />
<path d="M142.44,168.09A3,3 0 1 1 136.44,168.09A3,3 0 1 1 142.44,168.09Z" style="fill:#5630A2;fill-opacity:0.49804" />
<path d="M155.41,59.219A3,3 0 1 1 149.41,59.219A3,3 0 1 1 155.41,59.219Z" style="fill:#5630A2;fill-opacity:0.49804" />
<path d="M249.48,49.613A3,3 0 1 1 243.48,49.613A3,3 0 1 1 249.48,49.613Z" style="fill:#5630A2;fill-opacity:0.49804" />
<path d="M259.21,84.834A3,3 0 1 1 253.21,84.834A3,3 0 1 1 259.21,84.834Z" style="fill:#5630A2;fill-opacity:0.49804" />
<path d="M230.02,88.036A3,3 0 1 1 224.02,88.036A3,3 0 1 1 230.02,88.036Z" style="fill:#5630A2;fill-opacity:0.49804" />
<path d="M161.9,81.632A3,3 0 1 1 155.9,81.632A3,3 0 1 1 161.9,81.632Z" style="fill:#5630A2;fill-opacity:0.49804" />
<path d="M155.41,152.08A3,3 0 1 1 149.41,152.08A3,3 0 1 1 155.41,152.08Z" style="fill:#5630A2;fill-opacity:0.49804" />
<path d="M210.55,132.86A3,3 0 1 1 204.55,132.86A3,3 0 1 1 210.55,132.86Z" style="fill:#5630A2;fill-opacity:0.49804" />
<path d="M155.41,152.08A3,3 0 1 1 149.41,152.08A3,3 0 1 1 155.41,152.08Z" style="fill:#5630A2;fill-opacity:0.49804" />
<path d="M191.09,56.017A3,3 0 1 1 185.09,56.017A3,3 0 1 1 191.09,56.017Z" style="fill:#5630A2;fill-opacity:0.49804" />
<path d="M217.04,84.834A3,3 0 1 1 211.04,84.834A3,3 0 1 1 217.04,84.834Z" style="fill:#5630A2;fill-opacity:0.49804" />
<path d="M187.85,142.47A3,3 0 1 1 181.85,142.47A3,3 0 1 1 187.85,142.47Z" style="fill:#5630A2;fill-opacity:0.49804" />
<path d="M171.63,139.27A3,3 0 1 1 165.63,139.27A3,3 0 1 1 171.63,139.27Z" style="fill:#5630A2;fill-opacity:0.49804" />
<path d="M236.5,52.815A3,3 0 1 1 230.5,52.815A3,3 0 1 1 236.5,52.815Z" style="fill:#5630A2;fill-opacity:0.49804" />
<path d="M213.8,52.815A3,3 0 1 1 207.8,52.815A3,3 0 1 1 213.8,52.815Z" style="fill:#5630A2;fill-opacity:0.49804" />
<path d="M200.82,84.834A3,3 0 1 1 194.82,84.834A3,3 0 1 1 200.82,84.834Z" style="fill:#5630A2;fill-opacity:0.49804" />
<path d="M178.12,94.44A3,3 0 1 1 172.12,94.44A3,3 0 1 1 178.12,94.44Z" style="fill:#5630A2;fill-opacity:0.49804" />
<path d="M158.66,123.26A3,3 0 1 1 152.66,123.26A3,3 0 1 1 158.66,123.26Z" style="fill:#5630A2;fill-opacity:0.49804" />
<path d="M252.72,152.08A3,3 0 1 1 246.72,152.08A3,3 0 1 1 252.72,152.08Z" style="fill:#5630A2;fill-opacity:0.49804" />
<path d="M197.58,155.28A3,3 0 1 1 191.58,155.28A3,3 0 1 1 197.58,155.28Z" style="fill:#5630A2;fill-opacity:0.49804" />
<path d="M200.82,129.66A3,3 0 1 1 194.82,129.66A3,3 0 1 1 200.82,129.66Z" style="fill:#5630A2;fill-opacity:0.49804" />
<path d="M204.07,216.11A3,3 0 1 1 198.07,216.11A3,3 0 1 1 204.07,216.11Z" style="fill:#5630A2;fill-opacity:0.49804" />
<path d="M129.47,190.5A3,3 0 1 1 123.47,190.5A3,3 0 1 1 129.47,190.5Z" style="fill:#5630A2;fill-opacity:0.49804" />
<path d="M135.95,174.49A3,3 0 1 1 129.95,174.49A3,3 0 1 1 135.95,174.49Z" style="fill:#5630A2;fill-opacity:0.49804" />
<path d="M142.44,174.49A3,3 0 1 1 136.44,174.49A3,3 0 1 1 142.44,174.49Z" style="fill:#5630A2;fill-opacity:0.49804" />
<path d="M200.82,206.51A3,3 0 1 1 194.82,206.51A3,3 0 1 1 200.82,206.51Z" style="fill:#5630A2;fill-opacity:0.49804" />
<path d="M233.26,232.12A3,3 0 1 1 227.26,232.12A3,3 0 1 1 233.26,232.12Z" style="fill:#5630A2;fill-opacity:0.49804" />
<path d="M204.07,184.09A3,3 0 1 1 198.07,184.09A3,3 0 1 1 204.07,184.09Z" style="fill:#5630A2;fill-opacity:0.49804" />
<path d="M194.34,171.29A3,3 0 1 1 188.34,171.29A3,3 0 1 1 194.34,171.29Z" style="fill:#5630A2;fill-opacity:0.49804" />
<path d="M207.31,200.1A3,3 0 1 1 201.31,200.1A3,3 0 1 1 207.31,200.1Z" style="fill:#5630A2;fill-opacity:0.49804" />
<path d="M265.69,187.3A3,3 0 1 1 259.69,187.3A3,3 0 1 1 265.69,187.3Z" style="fill:#5630A2;fill-opacity:0.49804" />
<path d="M213.8,187.3A3,3 0 1 1 207.8,187.3A3,3 0 1 1 213.8,187.3Z" style="fill:#5630A2;fill-opacity:0.49804" />
<path d="M268.94,219.32A3,3 0 1 1 262.94,219.32A3,3 0 1 1 268.94,219.32Z" style="fill:#5630A2;fill-opacity:0.49804" />
<path d="M259.21,206.51A3,3 0 1 1 253.21,206.51A3,3 0 1 1 259.21,206.51Z" style="fill:#5630A2;fill-opacity:0.49804" />
<path d="M217.04,228.92A3,3 0 1 1 211.04,228.92A3,3 0 1 1 217.04,228.92Z" style="fill:#5630A2;fill-opacity:0.49804" />
<path d="M246.23,203.31A3,3 0 1 1 240.23,203.31A3,3 0 1 1 246.23,203.31Z" style="fill:#5630A2;fill-opacity:0.49804" />
<path d="M181.36,200.1A3,3 0 1 1 175.36,200.1A3,3 0 1 1 181.36,200.1Z" style="fill:#5630A2;fill-opacity:0.49804" />
<path d="M262.45,193.7A3,3 0 1 1 256.45,193.7A3,3 0 1 1 262.45,193.7Z" style="fill:#5630A2;fill-opacity:0.49804" />
<path d="M145.68,190.5A3,3 0 1 1 139.68,190.5A3,3 0 1 1 145.68,190.5Z" style="fill:#5630A2;fill-opacity:0.49804" />
<path d="M268.94,216.11A3,3 0 1 1 262.94,216.11A3,3 0 1 1 268.94,216.11Z" style="fill:#5630A2;fill-opacity:0.49804" />
<path d="M194.34,174.49A3,3 0 1 1 188.34,174.49A3,3 0 1 1 194.34,174.49Z" style="fill:#5630A2;fill-opacity:0.49804" />
<path d="M236.5,196.9A3,3 0 1 1 230.5,196.9A3,3 0 1 1 236.5,196.9Z" style="fill:#5630A2;fill-opacity:0.49804" />
<path d="M236.5,219.32A3,3 0 1 1 230.5,219.32A3,3 0 1 1 236.5,219.32Z" style="fill:#5630A2;fill-opacity:0.49804" />
<path d="M233.26,190.5A3,3 0 1 1 227.26,190.5A3,3 0 1 1 233.26,190.5Z" style="fill:#5630A2;fill-opacity:0.49804" />
<path d="M187.85,209.71A3,3 0 1 1 181.85,209.71A3,3 0 1 1 187.85,209.71Z" style="fill:#5630A2;fill-opacity:0.49804" />
<path d="M171.63,193.7A3,3 0 1 1 165.63,193.7A3,3 0 1 1 171.63,193.7Z" style="fill:#5630A2;fill-opacity:0.49804" />
<path d="M200.82,174.49A3,3 0 1 1 194.82,174.49A3,3 0 1 1 200.82,174.49Z" style="fill:#5630A2;fill-opacity:0.49804" />
<path d="M226.77,203.31A3,3 0 1 1 220.77,203.31A3,3 0 1 1 226.77,203.31Z" style="fill:#5630A2;fill-opacity:0.49804" />
<path d="M259.21,171.29A3,3 0 1 1 253.21,171.29A3,3 0 1 1 259.21,171.29Z" style="fill:#5630A2;fill-opacity:0.49804" />
<path d="M191.09,180.89A3,3 0 1 1 185.09,180.89A3,3 0 1 1 191.09,180.89Z" style="fill:#5630A2;fill-opacity:0.49804" />
<path d="M197.58,187.3A3,3 0 1 1 191.58,187.3A3,3 0 1 1 197.58,187.3Z" style="fill:#5630A2;fill-opacity:0.49804" />
<path d="M220.28,225.72A3,3 0 1 1 214.28,225.72A3,3 0 1 1 220.28,225.72Z" style="fill:#5630A2;fill-opacity:0.49804" />
<path d="M204.07,187.3A3,3 0 1 1 198.07,187.3A3,3 0 1 1 204.07,187.3Z" style="fill:#5630A2;fill-opacity:0.49804" />
<path d="M262.45,216.11A3,3 0 1 1 256.45,216.11A3,3 0 1 1 262.45,216.11Z" style="fill:#5630A2;fill-opacity:0.49804" />
<path d="M100.27,171.29A3,3 0 1 1 94.275,171.29A3,3 0 1 1 100.27,171.29Z" style="fill:#5630A2;fill-opacity:0.49804" />
<path d="M197.58,196.9A3,3 0 1 1 191.58,196.9A3,3 0 1 1 197.58,196.9Z" style="fill:#5630A2;fill-opacity:0.49804" />
<path d="M171.63,168.09A3,3 0 1 1 165.63,168.09A3,3 0 1 1 171.63,168.09Z" style="fill:#5630A2;fill-opacity:0.49804" />
<path d="M145.68,174.49A3,3 0 1 1 139.68,174.49A3,3 0 1 1 145.68,174.49Z" style="fill:#5630A2;fill-opacity:0.49804" />
<path d="M194.34,190.5A3,3 0 1 1 188.34,190.5A3,3 0 1 1 194.34,190.5Z" style="fill:#5630A2;fill-opacity:0.49804" />
<path d="M197.58,174.49A3,3 0 1 1 191.58,174.49A3,3 0 1 1 197.58,174.49Z" style="fill:#5630A2;fill-opacity:0.49804" />
<path d="M116.49,171.29A3,3 0 1 1 110.49,171.29A3,3 0 1 1 116.49,171.29Z" style="fill:#5630A2;fill-opacity:0.49804" />
<path d="M200.82,193.7A3,3 0 1 1 194.82,193.7A3,3 0 1 1 200.82,193.7Z" style="fill:#5630A2;fill-opacity:0.49804" />
<path d="M259.21,228.92A3,3 0 1 1 253.21,228.92A3,3 0 1 1 259.21,228.92Z" style="fill:#5630A2;fill-opacity:0.49804" />
<path d="M200.82,219.32A3,3 0 1 1 194.82,219.32A3,3 0 1 1 200.82,219.32Z" style="fill:#5630A2;fill-opacity:0.49804" />
<path d="M110.01,174.49A3,3 0 1 1 104.01,174.49A3,3 0 1 1 110.01,174.49Z" style="fill:#5630A2;fill-opacity:0.49804" />
<path d="M255.96,200.1A3,3 0 1 1 249.96,200.1A3,3 0 1 1 255.96,200.1Z" style="fill:#5630A2;fill-opacity:0.49804" />
<path d="M217.04,187.3A3,3 0 1 1 211.04,187.3A3,3 0 1 1 217.04,187.3Z" style="fill:#5630A2;fill-opacity:0.49804" />
<path d="M262.45,177.69A3,3 0 1 1 256.45,177.69A3,3 0 1 1 262.45,177.69Z" style="fill:#5630A2;fill-opacity:0.49804" />
<path d="M255.96,193.7A3,3 0 1 1 249.96,193.7A3,3 0 1 1 255.96,193.7Z" style="fill:#5630A2;fill-opacity:0.49804" />
<path d="M252.72,206.51A3,3 0 1 1 246.72,206.51A3,3 0 1 1 252.72,206.51Z" style="fill:#5630A2;fill-opacity:0.49804" />
<path d="M165.15,174.49A3,3 0 1 1 159.15,174.49A3,3 0 1 1 165.15,174.49Z" style="fill:#5630A2;fill-opacity:0.49804" />
<path d="M246.23,177.69A3,3 0 1 1 240.23,177.69A3,3 0 1 1 246.23,177.69Z" style="fill:#5630A2;fill-opacity:0.49804" />
<path d="M207.31,177.69A3,3 0 1 1 201.31,177.69A3,3 0 1 1 207.31,177.69Z" style="fill:#5630A2;fill-opacity:0.49804" />
<path d="M204.07,222.52A3,3 0 1 1 198.07,222.52A3,3 0 1 1 204.07,222.52Z" style="fill:#5630A2;fill-opacity:0.49804" />
<path d="M165.15,168.09A3,3 0 1 1 159.15,168.09A3,3 0 1 1 165.15,168.09Z" style="fill:#5630A2;fill-opacity:0.49804" />
<path d="M116.49,132.86A3,3 0 1 1 110.49,132.86A3,3 0 1 1 116.49,132.86Z" style="fill:#5630A2;fill-opacity:0.49804" />
<path d="M181.36,152.08A3,3 0 1 1 175.36,152.08A3,3 0 1 1 181.36,152.08Z" style="fill:#5630A2;fill-opacity:0.49804" />
<path d="M233.26,75.228A3,3 0 1 1 227.26,75.228A3,3 0 1 1 233.26,75.228Z" style="fill:#5630A2;fill-opacity:0.49804" />
<path d="M194.34,68.825A3,3 0 1 1 188.34,68.825A3,3 0 1 1 194.34,68.825Z" style="fill:#5630A2;fill-opacity:0.49804" />
<path d="M122.98,148.87A3,3 0 1 1 116.98,148.87A3,3 0 1 1 122.98,148.87Z" style="fill:#5630A2;fill-opacity:0.49804" />
<path d="M106.76,56.017A3,3 0 1 1 100.76,56.017A3,3 0 1 1 106.76,56.017Z" style="fill:#5630A2;fill-opacity:0.49804" />
<path d="M184.61,62.421A3,3 0 1 1 178.61,62.421A3,3 0 1 1 184.61,62.421Z" style="fill:#5630A2;fill-opacity:0.49804" />
<path d="M103.52,72.027A3,3 0 1 1 97.518,72.027A3,3 0 1 1 103.52,72.027Z" style="fill:#5630A2;fill-opacity:0.49804" />
<path d="M226.77,56.017A3,3 0 1 1 220.77,56.017A3,3 0 1 1 226.77,56.017Z" style="fill:#5630A2;fill-opacity:0.49804" />
<path d="M132.71,168.09A3,3 0 1 1 126.71,168.09A3,3 0 1 1 132.71,168.09Z" style="fill:#5630A2;fill-opacity:0.49804" />
<path d="M122.98,78.43A3,3 0 1 1 116.98,78.43A3,3 0 1 1 122.98,78.43Z" style="fill:#5630A2;fill-opacity:0.49804" />
<path d="M197.58,155.28A3,3 0 1 1 191.58,155.28A3,3 0 1 1 197.58,155.28Z" style="fill:#5630A2;fill-opacity:0.49804" />
<path d="M152.17,110.45A3,3 0 1 1 146.17,110.45A3,3 0 1 1 152.17,110.45Z" style="fill:#5630A2;fill-opacity:0.49804" />
<path d="M181.36,94.44A3,3 0 1 1 175.36,94.44A3,3 0 1 1 181.36,94.44Z" style="fill:#5630A2;fill-opacity:0.49804" />
<path d="M184.61,104.05A3,3 0 1 1 178.61,104.05A3,3 0 1 1 184.61,104.05Z" style="fill:#5630A2;fill-opacity:0.49804" />
<path d="M194.34,91.238A3,3 0 1 1 188.34,91.238A3,3 0 1 1 194.34,91.238Z" style="fill:#5630A2;fill-opacity:0.49804" />
<path d="M161.9,43.209A3,3 0 1 1 155.9,43.209A3,3 0 1 1 161.9,43.209Z" style="fill:#5630A2;fill-opacity:0.49804" />
<path d="M152.17,43.209A3,3 0 1 1 146.17,43.209A3,3 0 1 1 152.17,43.209Z" style="fill:#5630A2;fill-opacity:0.49804" />
<path d="M223.53,152.08A3,3 0 1 1 217.53,152.08A3,3 0 1 1 223.53,152.08Z" style="fill:#5630A2;fill-opacity:0.49804" />
<path d="M103.52,56.017A3,3 0 1 1 97.518,56.017A3,3 0 1 1 103.52,56.017Z" style="fill:#5630A2;fill-opacity:0.49804" />
<path d="M204.07,123.26A3,3 0 1 1 198.07,123.26A3,3 0 1 1 204.07,123.26Z" style="fill:#5630A2;fill-opacity:0.49804" />
<path d="M178.12,104.05A3,3 0 1 1 172.12,104.05A3,3 0 1 1 178.12,104.05Z" style="fill:#5630A2;fill-opacity:0.49804" />
<path d="M158.66,126.46A3,3 0 1 1 152.66,126.46A3,3 0 1 1 158.66,126.46Z" style="fill:#5630A2;fill-opacity:0.49804" />
<path d="M171.63,81.632A3,3 0 1 1 165.63,81.632A3,3 0 1 1 171.63,81.632Z" style="fill:#5630A2;fill-opacity:0.49804" />
<path d="M158.66,72.027A3,3 0 1 1 152.66,72.027A3,3 0 1 1 158.66,72.027Z" style="fill:#5630A2;fill-opacity:0.49804" />
<path d="M210.55,81.632A3,3 0 1 1 204.55,81.632A3,3 0 1 1 210.55,81.632Z" style="fill:#5630A2;fill-opacity:0.49804" />
<path d="M230.02,88.036A3,3 0 1 1 224.02,88.036A3,3 0 1 1 230.02,88.036Z" style="fill:#5630A2;fill-opacity:0.49804" />
<path d="M233.26,84.834A3,3 0 1 1 227.26,84.834A3,3 0 1 1 233.26,84.834Z" style="fill:#5630A2;fill-opacity:0.49804" />
<path d="M161.9,142.47A3,3 0 1 1 155.9,142.47A3,3 0 1 1 161.9,142.47Z" style="fill:#5630A2;fill-opacity:0.49804" />
<path d="M191.09,88.036A3,3 0 1 1 185.09,88.036A3,3 0 1 1 191.09,88.036Z" style="fill:#5630A2;fill-opacity:0.49804" />
<path d="M174.88,164.88A3,3 0 1 1 168.88,164.88A3,3 0 1 1 174.88,164.88Z" style="fill:#5630A2;fill-opacity:0.49804" />
<path d="M217.04,116.85A3,3 0 1 1 211.04,116.85A3,3 0 1 1 217.04,116.85Z" style="fill:#5630A2;fill-opacity:0.49804" />
<path d="M174.88,94.44A3,3 0 1 1 168.88,94.44A3,3 0 1 1 174.88,94.44Z" style="fill:#5630A2;fill-opacity:0.49804" />
<path d="M152.17,113.65A3,3 0 1 1 146.17,113.65A3,3 0 1 1 152.17,113.65Z" style="fill:#5630A2;fill-opacity:0.49804" />
<path d="M148.93,65.623A3,3 0 1 1 142.93,65.623A3,3 0 1 1 148.93,65.623Z" style="fill:#5630A2;fill-opacity:0.49804" />
<path d="M194.34,91.238A3,3 0 1 1 188.34,91.238A3,3 0 1 1 194.34,91.238Z" style="fill:#5630A2;fill-opacity:0.49804" />
<path d="M187.85,129.66A3,3 0 1 1 181.85,129.66A3,3 0 1 1 187.85,129.66Z" style="fill:#5630A2;fill-opacity:0.49804" />
<path d="M145.68,97.642A3,3 0 1 1 139.68,97.642A3,3 0 1 1 145.68,97.642Z" style="fill:#5630A2;fill-opacity:0.49804" />
<path d="M185.09,141.77L192.16,148.84" style="fill:none;stroke:#5630A2;stroke-opacity:0.49804;stroke-width:0.5" />
<path d="M185.09,148.84L192.16,141.77" style="fill:none;stroke:#5630A2;stroke-opacity:0.49804;stroke-width:0.5" />
<path d="M110.01,299.36A3,3 0 1 1 104.01,299.36A3,3 0 1 1 110.01,299.36Z" style="fill:#48582A;fill-opacity:0.49804" />
<path d="M116.49,286.56A3,3 0 1 1 110.49,286.56A3,3 0 1 1 116.49,286.56Z" style="fill:#48582A;fill-opacity:0.49804" />
<path d="M113.25,283.36A3,3 0 1 1 107.25,283.36A3,3 0 1 1 113.25,283.36Z" style="fill:#48582A;fill-opacity:0.49804" />
<path d="M116.49,340.99A3,3 0 1 1 110.49,340.99A3,3 0 1 1 116.49,340.99Z" style="fill:#48582A;fill-opacity:0.49804" />
<path d="M139.2,270.55A3,3 0 1 1 133.2,270.55A3,3 0 1 1 139.2,270.55Z" style="fill:#48582A;fill-opacity:0.49804" />
<path d="M155.41,357A3,3 0 1 1 149.41,357A3,3 0 1 1 155.41,357Z" style="fill:#48582A;fill-opacity:0.49804" />
<path d="M119.74,286.56A3,3 0 1 1 113.74,286.56A3,3 0 1 1 119.74,286.56Z" style="fill:#48582A;fill-opacity:0.49804" />
<path d="M113.25,292.96A3,3 0 1 1 107.25,292.96A3,3 0 1 1 113.25,292.96Z" style="fill:#48582A;fill-opacity:0.49804" />
<path d="M106.76,251.34A3,3 0 1 1 100.76,251.34A3,3 0 1 1 106.76,251.34Z" style="fill:#48582A;fill-opacity:0.49804" />
<path d="M155.41,353.8A3,3 0 1 1 149.41,353.8A3,3 0 1 1 155.41,353.8Z" style="fill:#48582A;fill-opacity:0.49804" />
<path d="M122.98,273.75A3,3 0 1 1 116.98,273.75A3,3 0 1 1 122.98,273.75Z" style="fill:#48582A;fill-opacity:0.49804" />
<path d="M142.44,273.75A3,3 0 1 1 136.44,273.75A3,3 0 1 1 142.44,273.75Z" style="fill:#48582A;fill-opacity:0.49804" />
<path d="M135.95,302.57A3,3 0 1 1 129.95,302.57A3,3 0 1 1 135.95,302.57Z" style="fill:#48582A;fill-opacity:0.49804" />
<path d="M155.41,235.33A3,3 0 1 1 149.41,235.33A3,3 0 1 1 155.41,235.33Z" style="fill:#48582A;fill-opacity:0.49804" />
<path d="M116.49,318.58A3,3 0 1 1 110.49,318.58A3,3 0 1 1 116.49,318.58Z" style="fill:#48582A;fill-opacity:0.49804" />
<path d="M110.01,273.75A3,3 0 1 1 104.01,273.75A3,3 0 1 1 110.01,273.75Z" style="fill:#48582A;fill-opacity:0.49804" />
<path d="M100.27,334.59A3,3 0 1 1 94.275,334.59A3,3 0 1 1 100.27,334.59Z" style="fill:#48582A;fill-opacity:0.49804" />
<path d="M110.01,299.36A3,3 0 1 1 104.01,299.36A3,3 0 1 1 110.01,299.36Z" style="fill:#48582A;fill-opacity:0.49804" />
<path d="M139.2,273.75A3,3 0 1 1 133.2,273.75A3,3 0 1 1 139.2,273.75Z" style="fill:#48582A;fill-opacity:0.49804" />
<path d="M106.76,280.15A3,3 0 1 1 100.76,280.15A3,3 0 1 1 106.76,280.15Z" style="fill:#48582A;fill-opacity:0.49804" />
<path d="M119.74,334.59A3,3 0 1 1 113.74,334.59A3,3 0 1 1 119.74,334.59Z" style="fill:#48582A;fill-opacity:0.49804" />
<path d="M142.44,235.33A3,3 0 1 1 136.44,235.33A3,3 0 1 1 142.44,235.33Z" style="fill:#48582A;fill-opacity:0.49804" />
<path d="M119.74,248.13A3,3 0 1 1 113.74,248.13A3,3 0 1 1 119.74,248.13Z" style="fill:#48582A;fill-opacity:0.49804" />
<path d="M148.93,232.12A3,3 0 1 1 142.93,232.12A3,3 0 1 1 148.93,232.12Z" style="fill:#48582A;fill-opacity:0.49804" />
<path d="M142.44,212.91A3,3 0 1 1 136.44,212.91A3,3 0 1 1 142.44,212.91Z" style="fill:#48582A;fill-opacity:0.49804" />
<path d="M129.47,203.31A3,3 0 1 1 123.47,203.31A3,3 0 1 1 129.47,203.31Z" style="fill:#48582A;fill-opacity:0.49804" />
<path d="M103.52,216.11A3,3 0 1 1 97.518,216.11A3,3 0 1 1 103.52,216.11Z" style="fill:#48582A;fill-opacity:0.49804" />
<path d="M100.27,228.92A3,3 0 1 1 94.275,228.92A3,3 0 1 1 100.27,228.92Z" style="fill:#48582A;fill-opacity:0.49804" />
<path d="M103.52,228.92A3,3 0 1 1 97.518,228.92A3,3 0 1 1 103.52,228.92Z" style="fill:#48582A;fill-opacity:0.49804" />
<path d="M126.22,212.91A3,3 0 1 1 120.22,212.91A3,3 0 1 1 126.22,212.91Z" style="fill:#48582A;fill-opacity:0.49804" />
<path d="M116.49,206.51A3,3 0 1 1 110.49,206.51A3,3 0 1 1 116.49,206.51Z" style="fill:#48582A;fill-opacity:0.49804" />
<path d="M165.15,216.11A3,3 0 1 1 159.15,216.11A3,3 0 1 1 165.15,216.11Z" style="fill:#48582A;fill-opacity:0.49804" />
<path d="M110.01,222.52A3,3 0 1 1 104.01,222.52A3,3 0 1 1 110.01,222.52Z" style="fill:#48582A;fill-opacity:0.49804" />
<path d="M113.25,216.11A3,3 0 1 1 107.25,216.11A3,3 0 1 1 113.25,216.11Z" style="fill:#48582A;fill-opacity:0.49804" />
<path d="M152.17,232.12A3,3 0 1 1 146.17,232.12A3,3 0 1 1 152.17,232.12Z" style="fill:#48582A;fill-opacity:0.49804" />
<path d="M119.74,206.51A3,3 0 1 1 113.74,206.51A3,3 0 1 1 119.74,206.51Z" style="fill:#48582A;fill-opacity:0.49804" />
<path d="M129.47,200.1A3,3 0 1 1 123.47,200.1A3,3 0 1 1 129.47,200.1Z" style="fill:#48582A;fill-opacity:0.49804" />
<path d="M106.76,196.9A3,3 0 1 1 100.76,196.9A3,3 0 1 1 106.76,196.9Z" style="fill:#48582A;fill-opacity:0.49804" />
<path d="M126.22,216.11A3,3 0 1 1 120.22,216.11A3,3 0 1 1 126.22,216.11Z" style="fill:#48582A;fill-opacity:0.49804" />
<path d="M103.52,212.91A3,3 0 1 1 97.518,212.91A3,3 0 1 1 103.52,212.91Z" style="fill:#48582A;fill-opacity:0.49804" />
<path d="M103.52,187.3A3,3 0 1 1 97.518,187.3A3,3 0 1 1 103.52,187.3Z" style="fill:#48582A;fill-opacity:0.49804" />
<path d="M100.27,193.7A3,3 0 1 1 94.275,193.7A3,3 0 1 1 100.27,193.7Z" style="fill:#48582A;fill-opacity:0.49804" />
<path d="M103.52,200.1A3,3 0 1 1 97.518,200.1A3,3 0 1 1 103.52,200.1Z" style="fill:#48582A;fill-opacity:0.49804" />
<path d="M200.82,228.92A3,3 0 1 1 194.82,228.92A3,3 0 1 1 200.82,228.92Z" style="fill:#48582A;fill-opacity:0.49804" />
<path d="M129.47,219.32A3,3 0 1 1 123.47,219.32A3,3 0 1 1 129.47,219.32Z" style="fill:#48582A;fill-opacity:0.49804" />
<path d="M171.63,225.72A3,3 0 1 1 165.63,225.72A3,3 0 1 1 171.63,225.72Z" style="fill:#48582A;fill-opacity:0.49804" />
<path d="M168.39,331.38A3,3 0 1 1 162.39,331.38A3,3 0 1 1 168.39,331.38Z" style="fill:#48582A;fill-opacity:0.49804" />
<path d="M142.44,286.56A3,3 0 1 1 136.44,286.56A3,3 0 1 1 142.44,286.56Z" style="fill:#48582A;fill-opacity:0.49804" />
<path d="M171.63,344.19A3,3 0 1 1 165.63,344.19A3,3 0 1 1 171.63,344.19Z" style="fill:#48582A;fill-opacity:0.49804" />
<path d="M165.15,280.15A3,3 0 1 1 159.15,280.15A3,3 0 1 1 165.15,280.15Z" style="fill:#48582A;fill-opacity:0.49804" />
<path d="M168.39,280.15A3,3 0 1 1 162.39,280.15A3,3 0 1 1 168.39,280.15Z" style="fill:#48582A;fill-opacity:0.49804" />
<path d="M142.44,267.35A3,3 0 1 1 136.44,267.35A3,3 0 1 1 142.44,267.35Z" style="fill:#48582A;fill-opacity:0.49804" />
<path d="M135.95,321.78A3,3 0 1 1 129.95,321.78A3,3 0 1 1 135.95,321.78Z" style="fill:#48582A;fill-opacity:0.49804" />
<path d="M145.68,273.75A3,3 0 1 1 139.68,273.75A3,3 0 1 1 145.68,273.75Z" style="fill:#48582A;fill-opacity:0.49804" />
<path d="M155.41,270.55A3,3 0 1 1 149.41,270.55A3,3 0 1 1 155.41,270.55Z" style="fill:#48582A;fill-opacity:0.49804" />
<path d="M145.68,337.79A3,3 0 1 1 139.68,337.79A3,3 0 1 1 145.68,337.79Z" style="fill:#48582A;fill-opacity:0.49804" />
<path d="M145.68,318.58A3,3 0 1 1 139.68,318.58A3,3 0 1 1 145.68,318.58Z" style="fill:#48582A;fill-opacity:0.49804" />
<path d="M132.71,350.6A3,3 0 1 1 126.71,350.6A3,3 0 1 1 132.71,350.6Z" style="fill:#48582A;fill-opacity:0.49804" />
<path d="M145.68,276.95A3,3 0 1 1 139.68,276.95A3,3 0 1 1 145.68,276.95Z" style="fill:#48582A;fill-opacity:0.49804" />
<path d="M152.17,328.18A3,3 0 1 1 146.17,328.18A3,3 0 1 1 152.17,328.18Z" style="fill:#48582A;fill-opacity:0.49804" />
<path d="M168.39,321.78A3,3 0 1 1 162.39,321.78A3,3 0 1 1 168.39,321.78Z" style="fill:#48582A;fill-opacity:0.49804" />
<path d="M165.15,283.36A3,3 0 1 1 159.15,283.36A3,3 0 1 1 165.15,283.36Z" style="fill:#48582A;fill-opacity:0.49804" />
<path d="M129.47,324.98A3,3 0 1 1 123.47,324.98A3,3 0 1 1 129.47,324.98Z" style="fill:#48582A;fill-opacity:0.49804" />
<path d="M139.2,289.76A3,3 0 1 1 133.2,289.76A3,3 0 1 1 139.2,289.76Z" style="fill:#48582A;fill-opacity:0.49804" />
<path d="M139.2,273.75A3,3 0 1 1 133.2,273.75A3,3 0 1 1 139.2,273.75Z" style="fill:#48582A;fill-opacity:0.49804" />
<path d="M135.95,305.77A3,3 0 1 1 129.95,305.77A3,3 0 1 1 135.95,305.77Z" style="fill:#48582A;fill-opacity:0.49804" />
<path d="M142.44,337.79A3,3 0 1 1 136.44,337.79A3,3 0 1 1 142.44,337.79Z" style="fill:#48582A;fill-opacity:0.49804" />
<path d="M158.66,280.15A3,3 0 1 1 152.66,280.15A3,3 0 1 1 158.66,280.15Z" style="fill:#48582A;fill-opacity:0.49804" />
<path d="M148.93,344.19A3,3 0 1 1 142.93,344.19A3,3 0 1 1 148.93,344.19Z" style="fill:#48582A;fill-opacity:0.49804" />
<path d="M145.68,241.73A3,3 0 1 1 139.68,241.73A3,3 0 1 1 145.68,241.73Z" style="fill:#48582A;fill-opacity:0.49804" />
<path d="M132.71,280.15A3,3 0 1 1 126.71,280.15A3,3 0 1 1 132.71,280.15Z" style="fill:#48582A;fill-opacity:0.49804" />
<path d="M158.66,334.59A3,3 0 1 1 152.66,334.59A3,3 0 1 1 158.66,334.59Z" style="fill:#48582A;fill-opacity:0.49804" />
<path d="M139.2,315.37A3,3 0 1 1 133.2,315.37A3,3 0 1 1 139.2,315.37Z" style="fill:#48582A;fill-opacity:0.49804" />
<path d="M129.47,260.94A3,3 0 1 1 123.47,260.94A3,3 0 1 1 129.47,260.94Z" style="fill:#48582A;fill-opacity:0.49804" />
<path d="M155.41,328.18A3,3 0 1 1 149.41,328.18A3,3 0 1 1 155.41,328.18Z" style="fill:#48582A;fill-opacity:0.49804" />
<path d="M145.68,315.37A3,3 0 1 1 139.68,315.37A3,3 0 1 1 145.68,315.37Z" style="fill:#48582A;fill-opacity:0.49804" />
<path d="M135.95,321.78A3,3 0 1 1 129.95,321.78A3,3 0 1 1 135.95,321.78Z" style="fill:#48582A;fill-opacity:0.49804" />
<path d="M139.2,350.6A3,3 0 1 1 133.2,350.6A3,3 0 1 1 139.2,350.6Z" style="fill:#48582A;fill-opacity:0.49804" />
<path d="M132.71,257.74A3,3 0 1 1 126.71,257.74A3,3 0 1 1 132.71,257.74Z" style="fill:#48582A;fill-opacity:0.49804" />
<path d="M158.66,312.17A3,3 0 1 1 152.66,312.17A3,3 0 1 1 158.66,312.17Z" style="fill:#48582A;fill-opacity:0.49804" />
<path d="M145.68,260.94A3,3 0 1 1 139.68,260.94A3,3 0 1 1 145.68,260.94Z" style="fill:#48582A;fill-opacity:0.49804" />
<path d="M165.15,331.38A3,3 0 1 1 159.15,331.38A3,3 0 1 1 165.15,331.38Z" style="fill:#48582A;fill-opacity:0.49804" />
<path d="M155.41,292.96A3,3 0 1 1 149.41,292.96A3,3 0 1 1 155.41,292.96Z" style="fill:#48582A;fill-opacity:0.49804" />
<path d="M145.68,276.95A3,3 0 1 1 139.68,276.95A3,3 0 1 1 145.68,276.95Z" style="fill:#48582A;fill-opacity:0.49804" />
<path d="M139.2,305.77A3,3 0 1 1 133.2,305.77A3,3 0 1 1 139.2,305.77Z" style="fill:#48582A;fill-opacity:0.49804" />
<path d="M129.27,272.21L136.34,279.28" style="fill:none;stroke:#48582A;stroke-opacity:0.49804;stroke-width:0.5" />
<path d="M129.27,279.28L136.34,272.21" style="fill:none;stroke:#48582A;stroke-opacity:0.49804;stroke-width:0.5" />
</g>
</svg>
